<svg width="500" height="126" version="1.1" viewBox="0 0 375 94.5" xmlns="http://www.w3.org/2000/svg">
 <g transform="matrix(1.4568 0 0 1.4568 -428.77 -78.048)" fill-rule="evenodd" stroke-width=".35537">
  <path d="m540.19 53.575v7.0078h-7.106v4.0474h7.106v7.106h4.4414v-7.106h7.1074v-4.0474h-7.1074v-7.0078zm-139.36 42.199c-4.7955 0.0117-9.7484 0.04541-10.964 0.04541-2.2593 0-4.2166 0.10315-6.416 0.09814-1.0631-0.0021-2.0962 0.11187-3.0644 0.1919-1.5395 0.12744-3.269 0.01162-4.8325 0.0059-1.0956-0.0053-2.0686 0.17119-3.0557 0.20068-0.53612 0.01606-1.1506-0.04111-1.6758 0.0015l-3.0645 0.19189c-0.51084 0.02744-1.0698-0.0274-1.5806 0-2.1794 0.11775-5.8596 0.39089-7.8003 0.39111-0.62601 1.38e-4 -0.81767 0.10789-1.4766 0.10254l-4.5674 0.36768c-0.97807 0.13405-2.1182 0.02994-3.1172 0.14062-0.94485 0.10465-1.9615 0.22795-2.9736 0.28418-4.0178 0.22309-7.9973 0.86768-11.953 1.1733-3.992 0.30845-7.9292 0.80961-11.846 1.1836-4.6874 0.44753-12.635 1.7026-17.18 2.4624l-8.3174 1.4531c-0.63454 0.11812-2.2843 0.22582-2.6235 0.73242v1e-3h19.346c5.8774 0 11.495-1.5169 17.281-2.1636 0.97215-0.10868 1.9572-0.27474 2.8726-0.38525 1.0128-0.12218 1.877-0.21576 2.9004-0.35742 0.96865-0.13405 1.9813-0.26924 2.9077-0.34863 2.9171-0.25006 5.9076-0.69508 8.7847-0.8877l10.367-0.88476c2.5468-0.19362 5.0993-0.43058 7.6948-0.49805l7.4971-0.49805c0.49909 0.0011 1.1881 0.04053 1.6655-0.01318 2.0074-0.22538 4.2324-0.27552 6.2358-0.27832 0.62393-0.0011 0.82074-0.10675 1.4751-0.104l3.1597-0.09668c0.54243-0.02925 1.1344 0.01967 1.6816 0.0015l31.585-0.104c0.54244 6.91e-4 0.63559 0.0785 1.0825 0.10254 0.71021 0.03839 1.5464-8.69e-4 2.2705-0.0015 1.5574-0.0011 2.9438 0.20569 4.4414 0.19775l15.595 0.69141c1.5263 0.0737 5.114 0.49006 6.416 0.49365 0.54877 0.0011 0.63558 0.0739 1.0854 0.09815 0.38027 0.02042 0.80103-0.02592 1.1792 0.0059 2.0946 0.17314 4.1952 0.48132 6.3223 0.5874 6.3447 0.31652 12.661 1.2816 19.04 1.8838 2.6856 0.25356 5.5111 0.71735 8.1841 1.0942 8.034 1.1325 15.806 2.4987 23.747 4.0869 8.7113 1.7422 17.31 3.933 25.733 6.7398 2.8653 0.95486 5.6312 2.072 8.4478 3.1992 0.49556 0.19841 1.2414 0.55516 1.7065 0.66358-0.21905-0.32711-0.32822-0.31902-0.68994-0.49365l-5.9502-2.7363c-2.3374-1.0025-4.7382-1.8965-7.2393-2.7305-11.308-3.7706-20.132-5.584-31.745-7.9321-1.4057-0.28411-2.7441-0.52091-4.1777-0.75732-5.7706-0.9514-11.443-1.9753-17.307-2.6309-4.4305-0.49509-8.6727-1.2099-13.34-1.5645-1.5189-0.1153-3.1563-0.19048-4.5601-0.375-2.2763-0.29937-4.5793-0.24846-6.8555-0.54785l-16.017-1.355c-0.53273-0.01351-0.5942-0.08682-1.0825-0.10107-1.5726-0.04605-4.5293-0.03541-5.9678-0.25195-1.424-0.2145-7.5789-0.26853-9.5376-0.43066-0.38494-0.0318-0.88401-0.0061-1.2803-0.0029-0.57308 0.0021-0.72218-0.07618-1.1807-0.10107-1.5885-0.08572-3.4438 0.12288-4.8647-0.07178-0.76168-0.10455-1.6093 0.03381-2.3833-0.0835-0.58376-0.08838-5.2211-0.09813-10.017-0.08643z" fill="#f3b530"/>
  <path d="m308.83 67.887c-2.8726 0-4.9439 0.53253-6.7324 1.6582-1.4786 0.93073-3.0396 2.9805-3.0396 5.3496 0 3.2497 1.2904 4.3813 3.3809 6.4907l4.9365 4.3403c0.90243 0.90765 2.54 1.9829 2.54 3.6782 0 2.5258-2.8411 3.1582-4.9351 3.1582-1.7059 0-3.916-0.54658-5.4565-1.1543-0.28284-0.11149-0.51279-0.17974-0.78955-0.29736-0.35394-0.15035-0.45397-0.22918-0.85987-0.32373 0.23419 1.0054 0.39654 3.9643 0.49366 5.1313l3.6372 0.70459c3.6916 0.61439 8.0379 0.6875 11.09-1.374 0.93381-0.63072 1.5455-1.236 2.1328-2.2104 1.6069-2.6663 1.2061-5.7075-0.70166-7.9482l-5.6836-5.2734c-1.5476-1.151-3.4673-2.6085-3.4673-4.626 0-1.778 2.4764-2.8623 4.5396-2.8623 3.0863 0 5.1793 1.1231 5.9224 1.1851 0-0.88888-0.39404-3.187-0.39404-4.8369-0.80124-0.38436-5.2129-0.78955-6.6138-0.78955zm27.834 0c-6.5534 0-12.882 2.8189-15.229 8.2617-0.74293 1.7235-1.4517 4.0309-1.4517 6.4453 0 3.6693 0.63623 6.8032 3.0835 9.5508 0.52835 0.59314 0.0457 0.2307 0.8789 0.89648 1.3396 1.0706 0.66839 0.71829 2.6309 1.9102 2.3278 1.4139 6.484 2.0537 9.2974 2.0537 2.3713 0 4.7609-0.48333 6.5288-1.0723 1.5693-0.52271 3.6856-1.5813 4.8486-2.751 1.4918-1.5006 2.2992-2.2971 3.23-4.3711 1.7761-3.9577 1.9247-9.3857 0.0688-13.392-0.30252-0.65306-0.94843-1.5911-1.3931-2.1606-1.0424-1.3352-2.3599-2.4541-3.8101-3.2959-2.2936-1.3315-5.7962-2.0757-8.6836-2.0757zm142.65 0.01318c-3.4379 0.04317-6.8666 0.88589-8.5474 3.6064-0.42946 0.69494-1.0518 1.9363-1.0518 2.9941 0 1.8252-0.0461 2.5466 0.9668 4.1646 0.9394 1.5003 3.9698 4.2186 5.562 5.4932l2.6265 2.4082c0.73979 0.65036 0.19688 0.0318 0.98145 0.9917 1.5707 1.921 0.66094 5.0039-4.2158 5.0039-3.4535 0-5.7142-1.4512-7.106-1.7754 6e-3 0.28598 0.08 0.78734 0.12744 1.1543 0.18452 1.4326 0.26807 2.3874 0.26807 3.8789 0.60816 0.2918 2.7657 0.66056 3.6357 0.8042 4.5578 0.75263 10.693 0.74492 13.346-3.6606 1.6211-2.6921 1.1097-5.5792-0.77929-7.9175-0.24249-0.30017-0.46818-0.46072-0.70752-0.7749-0.54591-0.71649-4.8356-4.3676-5.8008-5.1548-0.74537-0.60782-1.792-1.4991-2.2632-2.376-0.74468-1.3861-0.25406-2.8082 1.1938-3.6812 1.7001-1.0251 4.2602-0.79451 6.1011-0.35596l2.8418 0.81006c-0.11285-1.3565-0.37843-2.9231-0.38379-4.3535-2e-3 -0.75611-0.2216-0.56544-0.97119-0.70606-1.6948-0.31777-3.7615-0.57962-5.8242-0.55371zm-35.697 0.375c-3.076 0.02225-6.689 0.14229-9.0439 0.10107-1.0429-0.01819-0.79145 0.12096-0.78516 1.1895 0.0122 1.9581 0.0591 8.2005-0.15527 9.6167-0.0923 0.61109-0.0432 1.2984-0.0396 1.9336 5e-3 0.75283-0.10555 1.0968-0.10108 1.8735 9e-3 1.5214-0.1465 3.1042-0.19336 4.7417l-0.20215 2.7583c5e-3 1.5028-0.34298 3.4603-0.37646 4.5791-0.0191 0.64211 0.50931 0.25572 1.5483 0.37207l4.6509 0.28125c0.0391-0.47085 0.10028-0.75842 0.0981-1.3828l0.0996-4.3433c-1.5e-4 -0.49357 2.6e-4 -0.98739-1e-3 -1.481-2e-3 -0.6273 0.073-0.88968 0.0996-1.3799 0.0534-0.98809-0.033-2.0642-1e-3 -3.063l0.10108-2.8608c-2e-3 -0.6272 0.073-0.88968 0.0996-1.3799 0.0257-0.47878-0.0262-1.0035 0-1.4824l0.19482-4.2466c7.1e-4 -0.62139 0.10107-0.81989 0.10107-1.4766 2.3055 0 6.8146-0.33434 8.4067 0.77197 2.9204 2.0292 1.6173 7.8149-4.6553 7.8149-0.63031 0-2.1926-0.11791-2.5664-0.29736 0.0362 0.4338 3.1941 6.6856 3.6519 7.6011 1.3938 2.7877 2.0372 4.5024 3.2095 7.3521 0.086 0.2096 0.0335 0.42986 0.56104 0.52441 0.0255 0.0053 0.054 0.01071 0.0835 0.01465 0.14198 0.01819 0.33891 0.0016 0.4878 0.0059 0.46431 0.0085 0.42001 0.06595 0.7998 0.09668 0.51166 0.0418 1.0145-0.10006 1.6685-0.09814 1.1751 0.0021 2.1817 0.09961 3.4556 0.09961-0.0542-0.65227-2.1204-3.973-2.5664-4.8369l-2.6616-4.7417c-0.30611-0.52669-0.50841-1.0866-0.83496-1.6318-0.24794-0.41417-0.74131-1.267-0.84668-1.7197 0.72799-0.06073 3.3454-0.9457 4.166-1.459 2.0354-1.273 3.5332-3.6732 3.5332-6.1406 0-1.6316 0.0372-2.7585-0.90673-4.2261-1.5281-2.376-3.854-3.0802-6.5112-3.3589-1.07-0.11222-2.7218-0.13493-4.5674-0.12158zm50.656 0.06006c-0.50339 0.0028-0.99898 0.0129-1.4766 0.03369-0.81171 0.0352-0.41833 0.60195-0.47754 2.5811l-0.19629 4.3433c-7.1e-4 0.61037-0.10471 0.76505-0.10546 1.3755-1e-3 2.0538-0.27757 4.0786-0.29004 5.8301l-0.20362 2.855c-2e-3 3.435-0.49447 6.547 2.8916 9.0571 2.325 1.7236 5.6322 2.5942 9.646 2.5942h1e-3c4.6557 0 9.4037-0.97536 11.959-4.4268 1.289-1.741 1.4-4.23 1.648-6.4453l0.11279-2.5518c-6e-3 -0.55014 0.0385-0.79796 0.0835-1.1997 0.0496-0.44239-0.0162-0.91898 0.0205-1.3623 0.0582-0.70424 0.12965-1.7728 0.1875-2.4771l0.30322-5.0259c0.0111-1.7178 0.29297-3.3875 0.29297-5.1357h-6.5142c0 0.65809-1e-3 1.3166 0 1.9746l-0.22412 5.6968c-0.20038 1.4616-0.19104 3.17-0.26807 4.667l-0.19629 2.8638c-0.0151 1.8468-0.43261 5.0539-1.4795 6.5156-2.2031 3.0765-8.1806 2.8792-10.392 0.90967-2.1399-1.9063-1.7879-4.8516-1.6524-7.4268 0.0188-0.35647-0.026-0.71765 0.0132-1.0723l0.16845-2.1006c0.0434-0.38704-7e-3 -0.78149 0.0132-1.1704l0.48926-7.5059c0.0622-0.7527-0.0297-2.3562 0.20214-3.3516-1.4572 0-3.047-0.05367-4.5571-0.04541zm-137.28 0.04541-0.78955 20.728c-0.0215 0.42982-0.0781 0.35974-0.0996 0.78955l-0.39404 5.9224c0.55586 0 0.62729-0.09786 1.1807-0.10254l4.8457-0.28711c0.88888-0.07328 2.3987-0.04726 3.6606-0.18896 0.38425-0.04318 0.87512-0.01025 1.2715-0.01025 0.57086-7.13e-4 0.67383-0.09036 1.1792-0.10547 0.42235-0.01223 0.86672 0.0185 1.2891 0.0059 0.50534-0.0151 0.60686-0.10451 1.1777-0.10547l3.7559-0.09229c0.59955 0.0021 0.78607-0.10107 1.2817-0.10107 0-0.61109 0.0569-0.92398 0.0923-1.3887 0.0406-0.53567 0.104-1.0098 0.104-1.4736-1.1389 0-1.9083 0.09814-3.0586 0.09814h-10.068l0.68847-16.288c-5e-3 -0.65588 0.10454-0.84979 0.10401-1.4751-1e-3 -2.0192 0.29296-3.8717 0.29296-5.9253zm22.603 0c0 2.6666-0.2038 5.6935-0.19775 8.3906 1e-3 0.70807-0.0844 1.1067-0.10107 1.6743-0.0162 0.53614 0.041 1.1506-1e-3 1.6758-0.0459 0.5541-0.0969 0.9829-0.0923 1.6846 9e-3 1.3393-0.71033 12.556-0.88916 12.929 3.7299-5.2e-5 7.3522-0.19775 11.054-0.19775 0.58706 0 8.2576 0.06852 8.4419-0.04687 0.22255-0.13959 0.22596-0.79786 0.2417-1.1396 0.0265-0.5801 0.10108-0.86694 0.10108-1.3799-1.139 0-1.9098 0.09814-3.0601 0.09814h-10.068l0.39257-10.365c-5e-3 -0.65526 0.1038-0.85036 0.10401-1.4751 2.6e-4 -1.5623 0.20017-3.3758 0.19189-4.4473-5e-3 -0.65586 0.10444-0.8498 0.10401-1.4751-1e-3 -2.0192 0.29296-3.8717 0.29296-5.9253zm144.5 0-0.8042 21.305c-0.0469 0.42388-0.10118 1.2174-0.15527 1.6216l-0.42188 5.2046h6.1201c1.5459 9.6e-5 2.8335-0.09961 4.4414-0.09961 3.0836 0 5.9371 0.09961 9.0806 0.09961 0-1.561 0.2959-3.0479 0.2959-4.541-1.0743 0-1.7758 0.09814-2.8623 0.09814h-10.266c0-2.0598 0.19252-3.9943 0.19483-6.0234l0.29736-5.9209c-5e-3 -0.63266 0.0974-0.80437 0.104-1.3755 7e-3 -0.61328 5.9e-4 -1.0305 0.0674-1.5117l0.52148-8.8564zm-112.32 0.0015c-0.23979 1.0292-3.3073 6.7002-4.0796 8.2573l-9.3442 17.897h6.7119c0.17509-0.33085 0.27357-0.54986 0.43652-0.94482 0.47737-1.1568 3.2196-6.641 3.3149-7.0503h10.857c0.23409 1.0051 2.4193 6.4892 2.8623 8.3906 0.67569 0 1.0475 0.06942 1.5776 0.09814 0.56867 0.03074 1.2103-0.04134 1.7725 0.0059l3.2622 0.1919c-0.0135-0.59385-3.1655-8.671-3.6152-10.005-0.20462-0.60657-0.41529-1.1201-0.61523-1.6553l-2.4668-6.7119c-0.21694-0.57939-0.34676-1.1116-0.57715-1.6934-0.23116-0.58408-0.36932-1.0763-0.58301-1.6875-0.20913-0.59795-0.38643-1.051-0.59326-1.6772l-1.2217-3.416zm-75.543 3.9507c2.6157 0.02054 5.3416 0.89482 6.8716 2.6367 3.3838 3.8524 3.1657 11.119-0.0498 14.509-0.23644 0.24922-0.30825 0.41231-0.56543 0.61816-0.24364 0.19518-0.3724 0.32736-0.64892 0.53613-1.4198 1.0723-2.6091 1.4654-4.3564 1.7622-0.34146 0.05786-0.75909 0.03775-1.188 0.09668-2.3036 0.31628-5.4054-0.81735-7.2026-2.3276-1.5408-1.2947-2.792-4.1396-2.792-6.9785h-1e-3c0-1.6815 0.24581-3.2696 0.76025-4.5703 0.60156-1.521 0.95676-2.0807 1.8911-3.2417 0.7159-0.8895 1.9612-1.655 2.9736-2.1577 1.2089-0.60027 2.7387-0.89563 4.3081-0.8833zm79.097 0.48926 2.3818 6.9961c0.23746 0.71273 0.60398 1.6405 0.77637 2.3804h-7.7974c1.2263-2.3176 2.307-4.7136 3.4541-7.0078zm24.716 31.739c-1.8485-0.0271-3.7694 0.83912-4.5117 2.7788-0.68535 1.7906-0.22493 4.0627 0.94483 5.0361 1.8678 1.5547 5.6808 1.4977 7.1602-0.68262 0.43962-0.64783 0.80712-1.4986 0.80712-2.5488 0-1.4696-0.11148-2.3353-1.1089-3.3325-0.7962-0.7961-2.0267-1.2324-3.2915-1.251zm-30.309 9e-3c-2.0177 0.0126-3.9256 0.69934-4.7739 2.7964-0.23407 0.57879-0.39257 1.1541-0.39257 1.9761 0 1.3375 0.54863 2.4314 1.2934 3.0498 1.4668 1.2178 3.3455 1.1672 5.228 0.90528 0.37225-0.0517 0.54883-0.0879 0.93018-0.15528 0.51477-0.0909 0.50832 0.0138 0.55224-0.5332l0.18897-4.1543h-3.1582v0.98584l1.875-0.0981c0 1.0865-0.0981 1.7881-0.0981 2.8623-0.75633 0.0168-3.1292 0.85134-4.667-0.56543-0.61692-0.56829-0.92628-1.844-0.84082-2.5649 0.11063-0.93357 0.3576-1.7673 0.99316-2.4683 0.87105-0.96084 2.1474-1.0137 3.4277-1.0137 0.95375 0 1.5259 0.31872 2.2705 0.49219-0.0352-0.42399-0.0981-0.61085-0.0981-1.1836-0.87345-0.2035-1.8133-0.33678-2.7305-0.33105zm22.553 0.0234c-1.2801-0.01-2.9443 0.30199-2.9443 1.8867 0 1.1258 0.32767 1.5334 1.4106 2.439 0.58605 0.48999 1.3534 1.0623 1.8223 1.6318 0.81138 0.98578-0.0587 2.2703-2.291 1.7974-0.5343-0.1132-0.8528-0.39911-1.3374-0.43945 0.15657 0.32617 0.0996 0.71678 0.0996 1.185 0.77614 0.0646 3.2199 0.94197 4.5498-0.38525 1.3742-1.3715 0.0647-2.9366-1.0532-3.8042-0.41687-0.32363-1.2726-1.0047-1.5688-1.3916-0.86865-1.1342-0.0165-1.9204 0.93457-1.9204 1.3012 0 0.86849 0.0153 2.0728 0.2959-0.0285-0.34201-0.0519-0.24256-0.0835-0.60791-0.0333-0.38343 0.083-0.36469-0.16406-0.52735-0.0496-0.0326-0.67919-0.15373-1.4473-0.15966zm23.938 0.10254c-0.21102-2e-3 -0.50492 7e-3 -0.92431 7e-3 -0.36452 0-0.35279 0.40229-0.59034 0.89062l-1.5483 2.9927c-0.34853 0.69739-0.63975 1.2742-0.98584 1.9732-0.29019 0.58591-0.88226 1.445-1.021 2.0405-0.0914-0.12069-0.0632 0.10978-0.0981-0.29736h-4.0474c0.0122-0.52249 0.10427-0.72637 0.0981-1.875l0.29737-5.7246h-1.3828l-0.26954 6.4424c-0.0496 0.36465-2e-3 0.69634-0.0322 1.0547-0.0324 0.40465-0.0923 0.5509-0.0923 1.0898h6.6123c0.0836-0.35943 0.25826-0.58524 0.39404-0.88916 0.29695-0.66441 1.1549-2.3003 1.1851-2.6631h3.356c0.13975 0.5991 0.40432 1.1594 0.60498 1.7637 0.17928 0.53988 0.44706 1.2174 0.58007 1.7886h1.3814c-0.031-0.37153-2.4028-6.6484-2.7261-7.6362-0.27252-0.83298-0.15794-0.95116-0.79102-0.958zm-82.156 7e-3v0.49365c0 2.062-0.17457 4.152-0.19336 6.0249l-0.10254 2.0684h5.3291c0.39355 0 0.2959-0.27989 0.2959-0.9873h-4.2436l0.0981-2.8623h3.8496v-0.98584h-3.8496l0.0996-2.7642h4.3418v-0.9873zm7.2056 0-0.39551 8.5869h1.2832c0-2.3956 0.19775-4.4803 0.19775-6.9082 0.39585 0.14317 0.98192 1.276 1.2232 1.6377 0.40344 0.6054 0.76032 1.1405 1.1455 1.7183 0.26859 0.40276 2.1626 3.1487 2.2705 3.5522h1.6772c0-3.0387 0.15877-5.7423 0.39551-8.5869h-1.2832c0 0.71379-0.0953 1.0773-0.10254 1.6743-7e-3 0.57693 0.0345 1.2128 4e-3 1.7812l-0.0952 2.5693c-0.0135 0.48111-0.0929 0.45706-0.10254 0.88477-0.26356-0.19315-0.95247-1.3299-1.1851-1.6787-0.62382-0.93549-3.2332-4.704-3.356-5.231zm9.5728 0-0.23877 6.4731c-0.0787 0.52087-0.15527 1.6127-0.15527 2.1138h5.6265l0.0982-0.9873h-4.3433l0.0996-2.8623h3.8482c0.0362-0.43483 0.0996-0.23961 0.0996-0.98584h-3.8496l0.0981-2.7642h4.2451c0-0.74622 0.0617-0.55247 0.0981-0.9873zm7.1074 0v1.0854c0 1.3717-0.10625 2.4693-0.0981 3.7529 7e-3 1.2221-0.19776 2.4898-0.19776 3.7485h1.3814v-2.7642c-2e-3 -0.68449 0.086-1.0235 0.10254-1.5747 0.0165-0.55283-0.0244-1.1318-7e-3 -1.6846 0.0165-0.54908 0.10253-0.89434 0.10253-1.5762 1.7962 0 3.2578-0.3492 3.2578 1.2832 0 1.9873-2.5389 1.5791-3.0601 1.5791 0.69978 1.3225 1.739 2.8027 2.7627 4.7373h1.481c-0.19002-0.35916-0.38088-0.62198-0.6123-0.96679l-1.9541-3.0791c0.80252 0 1.4016-0.23369 1.8501-0.61817 1.4078-1.2064 1.0137-3.9228-1.3564-3.9228zm16.582 0v1.875c0 2.3247-0.11694 4.5618-0.2959 6.7119h1.4795c0-3.0091 0.0584-5.7334 0.2959-8.5869zm6.1187 0c-0.73735 1.3936-1.3612 2.8868-2.1387 4.2759l-2.2031 4.311h1.4795c0.13359-0.57345 0.54446-1.2747 0.79102-1.7754l0.78808-1.7768h3.356c0.0223 0.26848 1.039 3.2476 1.1851 3.5522h1.3814c-0.0923-0.39682-0.2236-0.62577-0.35743-1.0225-0.14799-0.43845-0.25317-0.66334-0.3955-1.0854l-1.5557-4.2686c-0.14335-0.40977-0.22581-0.72399-0.3706-1.1104-0.13074-0.34808-0.28282-0.67912-0.38086-1.1001zm40.37 0v1.1851c0 1.3717-0.10499 2.468-0.0967 3.7515 7e-3 1.2004-0.19922 2.4115-0.19922 3.6504h1.3814v-2.7642c-2e-3 -0.68449 0.086-1.0235 0.10253-1.5747 0.0165-0.55283-0.0229-1.1318-6e-3 -1.6846 0.0164-0.54908 0.10108-0.89434 0.10108-1.5762 1.8605 0 3.2578-0.35187 3.2578 1.2832 0 0.70739-0.42183 1.1931-0.95215 1.4165-0.9199 0.38759-1.126 0.1626-2.1079 0.1626 0.6998 1.3225 1.7405 2.8027 2.7642 4.7373h1.4795l-2.565-4.0459c0.8025 0 1.4002-0.23369 1.8486-0.61817 1.3674-1.1718 1.0804-3.9228-1.3564-3.9228zm-21.419 0.88916c1.0604 0 2.053-0.0347 2.8535 0.99609 0.98609 1.27 0.92424 3.6995-0.11133 4.8047-1.2702 1.3553-3.4328 1.3428-4.7197 0.42188-0.53844-0.3854-1.081-1.3484-1.081-2.2749v-0.59179c0-1.8396 1.2449-3.356 3.0586-3.356zm-18.161 0.2959c0.0766 0.92041 0.81432 1.9629 0.88916 2.8623h-2.4683l1.4194-2.8447zm34.447 0c0.03 0.36142 0.82085 2.5153 0.98731 2.8623h-2.5664l1.4194-2.8447z" fill="#1e3358"/>
 </g>
</svg>
